<svg width="100" height="100" viewBox="0 0 100 100" xmlns="http://www.w3.org/2000/svg">
  <!-- Background circle -->
  <circle cx="50" cy="50" r="45" fill="#e3f2fd" stroke="#1976d2" stroke-width="2"/>
  
  <!-- Server rack representation -->
  <rect x="25" y="15" width="50" height="70" rx="4" fill="#fff" stroke="#1976d2" stroke-width="2"/>
  
  <!-- Server modules -->
  <rect x="30" y="20" width="40" height="8" rx="2" fill="#2196f3"/>
  <rect x="30" y="32" width="40" height="8" rx="2" fill="#4caf50"/>
  <rect x="30" y="44" width="40" height="8" rx="2" fill="#ff9800"/>
  <rect x="30" y="56" width="40" height="8" rx="2" fill="#9c27b0"/>
  <rect x="30" y="68" width="40" height="8" rx="2" fill="#f44336"/>
  
  <!-- Connection lines between modules -->
  <line x1="35" y1="28" x2="35" y2="32" stroke="#666" stroke-width="1"/>
  <line x1="50" y1="28" x2="50" y2="32" stroke="#666" stroke-width="1"/>
  <line x1="65" y1="28" x2="65" y2="32" stroke="#666" stroke-width="1"/>
  
  <line x1="35" y1="40" x2="35" y2="44" stroke="#666" stroke-width="1"/>
  <line x1="50" y1="40" x2="50" y2="44" stroke="#666" stroke-width="1"/>
  <line x1="65" y1="40" x2="65" y2="44" stroke="#666" stroke-width="1"/>
  
  <line x1="35" y1="52" x2="35" y2="56" stroke="#666" stroke-width="1"/>
  <line x1="50" y1="52" x2="50" y2="56" stroke="#666" stroke-width="1"/>
  <line x1="65" y1="52" x2="65" y2="56" stroke="#666" stroke-width="1"/>
  
  <line x1="35" y1="64" x2="35" y2="68" stroke="#666" stroke-width="1"/>
  <line x1="50" y1="64" x2="50" y2="68" stroke="#666" stroke-width="1"/>
  <line x1="65" y1="64" x2="65" y2="68" stroke="#666" stroke-width="1"/>
  
  <!-- Docker icon representation -->
  <circle cx="15" cy="25" r="6" fill="#0db7ed" stroke="#fff" stroke-width="1"/>
  <rect x="12" y="22" width="6" height="6" rx="1" fill="#fff"/>
  
  <!-- Raspberry Pi icon representation -->
  <circle cx="85" cy="75" r="6" fill="#c51a4a" stroke="#fff" stroke-width="1"/>
  <rect x="82" y="72" width="6" height="6" rx="1" fill="#fff"/>
</svg>