<svg width="100" height="100" viewBox="0 0 100 100" xmlns="http://www.w3.org/2000/svg">
  <!-- Background circle -->
  <circle cx="50" cy="50" r="45" fill="#e8f5e8" stroke="#4caf50" stroke-width="2"/>
  
  <!-- Central hub/brain -->
  <circle cx="50" cy="50" r="15" fill="#4caf50" stroke="#2e7d32" stroke-width="2"/>
  
  <!-- Automation nodes around the hub -->
  <circle cx="50" cy="20" r="8" fill="#81c784" stroke="#4caf50" stroke-width="1"/>
  <circle cx="80" cy="50" r="8" fill="#81c784" stroke="#4caf50" stroke-width="1"/>
  <circle cx="50" cy="80" r="8" fill="#81c784" stroke="#4caf50" stroke-width="1"/>
  <circle cx="20" cy="50" r="8" fill="#81c784" stroke="#4caf50" stroke-width="1"/>
  
  <!-- Diagonal nodes -->
  <circle cx="71" cy="29" r="6" fill="#a5d6a7" stroke="#4caf50" stroke-width="1"/>
  <circle cx="71" cy="71" r="6" fill="#a5d6a7" stroke="#4caf50" stroke-width="1"/>
  <circle cx="29" cy="71" r="6" fill="#a5d6a7" stroke="#4caf50" stroke-width="1"/>
  <circle cx="29" cy="29" r="6" fill="#a5d6a7" stroke="#4caf50" stroke-width="1"/>
  
  <!-- Connection lines (representing data flow) -->
  <line x1="50" y1="35" x2="50" y2="28" stroke="#4caf50" stroke-width="2" stroke-dasharray="3,2"/>
  <line x1="65" y1="50" x2="72" y2="50" stroke="#4caf50" stroke-width="2" stroke-dasharray="3,2"/>
  <line x1="50" y1="65" x2="50" y2="72" stroke="#4caf50" stroke-width="2" stroke-dasharray="3,2"/>
  <line x1="35" y1="50" x2="28" y2="50" stroke="#4caf50" stroke-width="2" stroke-dasharray="3,2"/>
  
  <!-- Diagonal connections -->
  <line x1="61" y1="39" x2="67" y2="33" stroke="#4caf50" stroke-width="1" stroke-dasharray="2,1"/>
  <line x1="61" y1="61" x2="67" y2="67" stroke="#4caf50" stroke-width="1" stroke-dasharray="2,1"/>
  <line x1="39" y1="61" x2="33" y2="67" stroke="#4caf50" stroke-width="1" stroke-dasharray="2,1"/>
  <line x1="39" y1="39" x2="33" y2="33" stroke="#4caf50" stroke-width="1" stroke-dasharray="2,1"/>
  
  <!-- Gear/cog symbols in central hub -->
  <path d="M50 42 L52 46 L56 46 L53 49 L54 53 L50 51 L46 53 L47 49 L44 46 L48 46 Z" fill="#fff"/>
  
  <!-- Signal waves around automation -->
  <path d="M15 15 Q25 10 35 15" stroke="#4caf50" stroke-width="1" fill="none" opacity="0.6"/>
  <path d="M65 15 Q75 10 85 15" stroke="#4caf50" stroke-width="1" fill="none" opacity="0.6"/>
  <path d="M15 85 Q25 90 35 85" stroke="#4caf50" stroke-width="1" fill="none" opacity="0.6"/>
  <path d="M65 85 Q75 90 85 85" stroke="#4caf50" stroke-width="1" fill="none" opacity="0.6"/>
</svg>