<svg width="48" height="48" viewBox="0 0 48 48" xmlns="http://www.w3.org/2000/svg">
  <defs>
    <!-- Circular mask -->
    <clipPath id="circle-mask">
      <circle cx="24" cy="24" r="24"/>
    </clipPath>
  </defs>
  
  <!-- Apply circular mask to entire content -->
  <g clip-path="url(#circle-mask)">
    <!-- Background circle -->
    <circle cx="24" cy="24" r="24" fill="#1e293b"/>
    
    <!-- Server rack representation -->
    <rect x="12" y="14" width="24" height="20" rx="2" fill="#334155" stroke="#64748b" stroke-width="1"/>
    
    <!-- Server units -->
    <rect x="14" y="16" width="20" height="3" rx="1" fill="#475569"/>
    <rect x="14" y="20" width="20" height="3" rx="1" fill="#475569"/>
    <rect x="14" y="24" width="20" height="3" rx="1" fill="#3b82f6"/>
    <rect x="14" y="28" width="20" height="3" rx="1" fill="#475569"/>
    
    <!-- LED indicators -->
    <circle cx="16" cy="17.5" r="0.5" fill="#10b981"/>
    <circle cx="16" cy="21.5" r="0.5" fill="#10b981"/>
    <circle cx="16" cy="25.5" r="0.5" fill="#3b82f6"/>
    <circle cx="16" cy="29.5" r="0.5" fill="#f59e0b"/>
    
    <!-- Network connections -->
    <path d="M36 18 L42 18 M36 22 L42 22 M36 26 L42 26" stroke="#64748b" stroke-width="1.5" stroke-linecap="round"/>
    
    <!-- Home symbol -->
    <path d="M6 24 L12 18 L12 32 L6 32 Z" fill="#64748b" opacity="0.6"/>
    <polygon points="6,24 9,21 12,24" fill="#3b82f6" opacity="0.8"/>
  </g>
</svg>