<svg width="100" height="100" viewBox="0 0 100 100" xmlns="http://www.w3.org/2000/svg">
  <!-- Background circle -->
  <circle cx="50" cy="50" r="45" fill="#fff3e0" stroke="#ff9800" stroke-width="2"/>
  
  <!-- Shield main body -->
  <path d="M50 10 L65 20 L65 45 Q65 60 50 75 Q35 60 35 45 L35 20 Z" fill="#ff9800" stroke="#f57c00" stroke-width="2"/>
  
  <!-- Inner shield pattern -->
  <path d="M50 18 L58 25 L58 43 Q58 54 50 63 Q42 54 42 43 L42 25 Z" fill="#fff" opacity="0.9"/>
  
  <!-- Lock symbol in center -->
  <rect x="46" y="35" width="8" height="10" rx="1" fill="#ff9800"/>
  <path d="M47 35 Q47 30 50 30 Q53 30 53 35" stroke="#ff9800" stroke-width="2" fill="none"/>
  <circle cx="50" cy="40" r="1.5" fill="#fff"/>
  
  <!-- Security layers (concentric elements) -->
  <circle cx="50" cy="50" r="35" fill="none" stroke="#ff9800" stroke-width="1" opacity="0.3" stroke-dasharray="5,5"/>
  <circle cx="50" cy="50" r="25" fill="none" stroke="#ff9800" stroke-width="1" opacity="0.5" stroke-dasharray="3,3"/>
  
  <!-- SSL/Certificate symbol -->
  <circle cx="25" cy="25" r="8" fill="#4caf50" stroke="#fff" stroke-width="2"/>
  <path d="M21 25 L24 28 L29 22" stroke="#fff" stroke-width="2" fill="none"/>
  
  <!-- Firewall symbol -->
  <circle cx="75" cy="25" r="8" fill="#f44336" stroke="#fff" stroke-width="2"/>
  <rect x="72" y="22" width="6" height="6" fill="none" stroke="#fff" stroke-width="1"/>
  <line x1="70" y1="20" x2="80" y2="30" stroke="#fff" stroke-width="2"/>
  
  <!-- Authentication symbol -->
  <circle cx="25" cy="75" r="8" fill="#9c27b0" stroke="#fff" stroke-width="2"/>
  <circle cx="25" cy="72" r="2" fill="#fff"/>
  <path d="M22 75 Q22 78 25 78 Q28 78 28 75" stroke="#fff" stroke-width="1" fill="none"/>
  
  <!-- Backup/Recovery symbol -->
  <circle cx="75" cy="75" r="8" fill="#2196f3" stroke="#fff" stroke-width="2"/>
  <path d="M72 75 Q75 72 78 75 Q75 78 72 75" fill="#fff"/>
  <circle cx="75" cy="75" r="1" fill="#2196f3"/>
  
  <!-- Data flow lines -->
  <line x1="33" y1="33" x2="42" y2="42" stroke="#ff9800" stroke-width="1" opacity="0.6"/>
  <line x1="67" y1="33" x2="58" y2="42" stroke="#ff9800" stroke-width="1" opacity="0.6"/>
  <line x1="33" y1="67" x2="42" y2="58" stroke="#ff9800" stroke-width="1" opacity="0.6"/>
  <line x1="67" y1="67" x2="58" y2="58" stroke="#ff9800" stroke-width="1" opacity="0.6"/>
</svg>